# xmcd
#
# Track frame offsets: 
#        150
#        18675
#        35550
#        54000
#        81957
#
# Disc length: 4440 seconds
#
# Revision: 10
# Processed by: cddbd v1.5.2PL0 Copyright (c) Steve Scherf et al.
# Submitted via: ExactAudioCopyFreeDBPlugin 1.0
#
DISCID=35115605
DTITLE=島谷ひとみ - 亜麻色の髪の乙女
DYEAR=2002
DGENRE=Pop
TTITLE0=亜麻色の髪の乙女
TTITLE1=明日と今日のあいだ
TTITLE2=亜麻色の髪の乙女(Instrumrntal)
TTITLE3=明日と今日のあいだ(Instrumrntal)
TTITLE4=Data
EXTD=YEAR: 2002
EXTT0=
EXTT1=
EXTT2=
EXTT3=
EXTT4=
PLAYORDER=
